<svg width="609" height="587" viewBox="0 0 609 587" fill="none" xmlns="http://www.w3.org/2000/svg">
<g clip-path="url(#clip0_28:28)">
<path d="M557.293 351.483C552.369 339.744 538.502 334.07 526.322 338.819C514.141 343.565 508.258 356.93 513.183 368.671L541.2 435.472L457.988 400.115C451.965 397.556 445.11 397.516 439.056 400.007C410.619 411.702 380.154 417.631 348.51 417.631C221.152 417.631 135.598 321.516 135.598 231.745C135.598 129.248 231.11 45.8593 348.51 45.8593C465.91 45.8593 561.422 129.248 561.422 231.745C561.422 239.742 560.649 249.317 559.303 258.015C557.365 270.54 566.327 282.208 579.322 284.077C592.318 285.95 604.423 277.307 606.361 264.781C608.063 253.786 609 242.053 609 231.745C609 169.457 581.635 111.012 531.944 67.1758C482.841 23.8571 417.696 0 348.51 0C279.325 0 214.181 23.8571 165.077 67.1747C120.672 106.348 94.114 157.192 88.9625 212.016C33.1095 247.667 0.00109831 304.795 0.00109831 366.33C0.00109831 404.769 12.5653 441.241 36.4816 472.628L1.73532 555.475C-1.8937 564.127 0.27943 574.036 7.23177 580.532C11.7624 584.767 17.7322 587 23.7949 587C27.0337 586.999 30.3 586.363 33.3854 585.051L133.572 542.482C158.774 551.524 185.414 556.102 212.912 556.102C213.506 556.102 214.09 556.058 214.674 556.016C254.446 555.726 293.112 545.643 326.599 526.773C356.595 509.869 381.269 486.648 398.567 459.226C415.456 456.302 431.963 451.886 447.985 445.983L575.614 500.211C578.701 501.522 581.966 502.16 585.205 502.16C591.268 502.159 597.239 499.926 601.769 495.692C608.722 489.196 610.895 479.288 607.266 470.636L557.293 351.483ZM212.914 510.185C212.589 510.185 212.273 510.219 211.951 510.232C187.66 510.112 164.28 505.51 142.445 496.531C136.392 494.04 129.537 494.08 123.514 496.64L67.8034 520.31L85.7748 477.461C89.0969 469.539 87.5732 460.494 81.8234 453.992C59.4201 428.658 47.5791 398.346 47.5791 366.33C47.5791 329.687 63.5713 294.968 91.5519 268.643C100.263 314.416 124.843 358.202 161.922 392.599C208.062 435.401 269.093 460.197 334.994 463.182C304.054 492.538 259.778 510.185 212.914 510.185Z" fill="black" fill-opacity="0.07"/>
<path d="M347.321 255.666C360.459 255.666 371.11 245.4 371.11 232.736C371.11 220.072 360.459 209.806 347.321 209.806C334.182 209.806 323.532 220.072 323.532 232.736C323.532 245.4 334.182 255.666 347.321 255.666Z" fill="black" fill-opacity="0.07"/>
<path d="M442.477 255.666C455.615 255.666 466.266 245.4 466.266 232.736C466.266 220.072 455.615 209.806 442.477 209.806C429.339 209.806 418.688 220.072 418.688 232.736C418.688 245.4 429.339 255.666 442.477 255.666Z" fill="black" fill-opacity="0.07"/>
<path d="M252.165 255.666C265.303 255.666 275.954 245.4 275.954 232.736C275.954 220.072 265.303 209.806 252.165 209.806C239.026 209.806 228.376 220.072 228.376 232.736C228.376 245.4 239.026 255.666 252.165 255.666Z" fill="black" fill-opacity="0.07"/>
</g>
<defs>
<clipPath id="clip0_28:28">
<rect width="609" height="587" fill="white"/>
</clipPath>
</defs>
</svg>
