<svg width="527" height="547" viewBox="0 0 527 547" fill="none" xmlns="http://www.w3.org/2000/svg">
<g clip-path="url(#clip0_28:51)">
<path d="M396.964 341.878C408.207 341.878 417.321 333.132 417.321 322.342C417.321 311.553 408.207 302.806 396.964 302.806C385.721 302.806 376.606 311.553 376.606 322.342C376.606 333.132 385.721 341.878 396.964 341.878Z" fill="black" fill-opacity="0.07"/>
<path d="M285 117.217C158.786 117.217 63.28 211.683 61.1737 337.639L81.8061 348.95C81.6536 346.596 81.4299 344.271 81.4299 341.878C81.5033 277.172 136.145 224.734 203.572 224.664H366.43C433.888 224.664 488.572 277.143 488.572 341.878C488.572 406.613 433.887 459.092 366.43 459.092H203.571C148.998 459.002 101.093 424.221 86.1613 373.848L61.8038 360.486C69.2138 471.243 144.129 527.467 285 527.467C433.607 527.467 508.929 465.022 508.929 341.878C508.929 213.801 412.66 117.217 285 117.217ZM274.821 156.288H295.179C300.8 156.288 305.357 160.661 305.357 166.056C305.357 171.451 300.801 175.824 295.179 175.824H274.821C269.2 175.824 264.643 171.451 264.643 166.056C264.643 160.661 269.2 156.288 274.821 156.288ZM315.536 205.127H254.465C248.844 205.127 244.286 200.754 244.286 195.359C244.286 189.964 248.843 185.591 254.465 185.591H315.536C321.157 185.591 325.715 189.964 325.715 195.359C325.715 200.754 321.157 205.127 315.536 205.127Z" fill="black" fill-opacity="0.07"/>
<path d="M30.5362 273.502C13.6711 273.502 0 286.623 0 302.806V341.877C0 358.061 13.6711 371.181 30.5362 371.181H42.3336C41.3662 361.736 40.7149 352.055 40.7149 341.877C40.6782 318.81 43.7085 295.833 49.7336 273.502H30.5362Z" fill="black" fill-opacity="0.07"/>
<path d="M285 400.485C301.864 400.485 315.536 387.366 315.536 371.181H254.465C254.464 387.365 268.136 400.485 285 400.485Z" fill="black" fill-opacity="0.07"/>
<path d="M173.036 341.878C184.279 341.878 193.394 333.132 193.394 322.342C193.394 311.553 184.279 302.806 173.036 302.806C161.793 302.806 152.679 311.553 152.679 322.342C152.679 333.132 161.793 341.878 173.036 341.878Z" fill="black" fill-opacity="0.07"/>
<path d="M464.886 91.1171C393.455 22.5007 286.467 0.980736 192.336 36.2932C98.2048 71.6057 34.7911 157.053 30.79 253.967H51.1475C56.3777 133.729 159.475 38.8359 284.878 38.8359C410.28 38.8359 513.377 133.729 518.608 253.967H539.219C536.868 192.6 510.295 134.385 464.886 91.1171Z" fill="black" fill-opacity="0.07"/>
<path d="M539.464 273.502H520.268C526.293 295.833 529.323 318.81 529.286 341.877C529.286 352.055 528.635 361.735 527.668 371.181H539.465C556.329 371.181 570.001 358.062 570.001 341.877V302.806C570 286.623 556.329 273.502 539.464 273.502Z" fill="black" fill-opacity="0.07"/>
<path d="M213.75 420.02H183.845C174.988 420.017 166.284 417.798 158.592 413.583L114.825 389.574C132.807 420.414 166.746 439.528 203.572 439.556H366.43C422.645 439.556 468.216 395.824 468.216 341.877C468.216 287.93 422.645 244.198 366.43 244.198H203.571C173.085 244.192 144.203 257.309 124.879 279.937C105.555 302.565 97.8263 332.317 103.821 361.002L168.7 396.576C173.308 399.122 178.529 400.468 183.846 400.483H213.75C219.371 400.483 223.929 404.856 223.929 410.251C223.929 415.647 219.371 420.02 213.75 420.02ZM173.036 361.413C150.55 361.413 132.322 343.92 132.322 322.342C132.322 300.763 150.551 283.271 173.036 283.271C195.521 283.271 213.75 300.763 213.75 322.342C213.75 343.921 195.521 361.413 173.036 361.413ZM396.964 283.27C419.45 283.27 437.678 300.763 437.678 322.341C437.678 343.92 419.449 361.412 396.964 361.412C374.478 361.412 356.25 343.919 356.25 322.341C356.25 300.763 374.479 283.27 396.964 283.27ZM254.464 351.645H315.535C326.778 351.645 335.893 360.392 335.893 371.181C335.893 398.154 313.107 420.02 285 420.02C256.893 420.02 234.107 398.154 234.107 371.181C234.107 360.392 243.222 351.645 254.464 351.645Z" fill="black" fill-opacity="0.07"/>
</g>
<defs>
<clipPath id="clip0_28:51">
<rect width="570" height="547" fill="white"/>
</clipPath>
</defs>
</svg>
